Coordinates
version=1
nRows=7
nColumns=40
inDegrees=yes
endheader
time	pelvis_tilt	pelvis_list	pelvis_rotation	pelvis_tx	pelvis_ty	pelvis_tz	hip_flexion_r	hip_adduction_r	hip_rotation_r	knee_angle_r	knee_angle_r_beta	ankle_angle_r	subtalar_angle_r	mtp_angle_r	hip_flexion_l	hip_adduction_l	hip_rotation_l	knee_angle_l	knee_angle_l_beta	ankle_angle_l	subtalar_angle_l	mtp_angle_l	lumbar_extension	lumbar_bending	lumbar_rotation	arm_flex_r	arm_add_r	arm_rot_r	elbow_flex_r	pro_sup_r	wrist_flex_r	wrist_dev_r	arm_flex_l	arm_add_l	arm_rot_l	elbow_flex_l	pro_sup_l	wrist_flex_l	wrist_dev_l
1760625408.25394106	      2.24867867	     -1.44535894	      0.52300414	      0.15739772	      0.85416642	      0.00224892	     80.00000000	     -7.00000000	      0.00000000	     80.00000000	      1.39626340	      0.00000000	      0.00000000	      0.00000000	     80.00000000	     -7.00000000	      0.00000000	     80.00000000	      1.39626340	      0.00000000	      0.00000000	      0.00000000	     -7.40947856	     -1.54954909	      2.33686565	      2.73309793	     -6.31260603	     14.59492734	      0.00000000	      0.00000000	     -6.60490234	    -16.68543016	      4.23867316	     -5.99004663	     14.66626200	      0.00000000	      7.81823097	     -8.08200457	     -7.11191054
1760625408.26394105	      2.24525896	     -1.43564676	      0.51965718	      0.15739120	      0.85414939	      0.00217778	     80.00000000	     -7.00000000	      0.00000000	     80.00000000	      1.39626340	      0.00000000	      0.00000000	      0.00000000	     80.00000000	     -7.00000000	      0.00000000	     80.00000000	      1.39626340	      0.00000000	      0.00000000	      0.00000000	     -7.41300055	     -1.53966951	      2.33548186	      2.71960876	     -6.29925234	     14.59299475	      0.00000000	      0.00000000	     -6.60512392	    -16.68482052	      4.22717430	     -5.99073491	     14.66548238	      0.00000000	      7.81758611	     -8.08373905	     -7.11224931
1760625408.27394104	      2.24580061	     -1.43588921	      0.51925944	      0.15734997	      0.85414618	      0.00214958	     80.00000000	     -7.00000000	      0.00000000	     80.00000000	      1.39626340	      0.00000000	      0.00000000	      0.00000000	     80.00000000	     -7.00000000	      0.00000000	     80.00000000	      1.39626340	      0.00000000	      0.00000000	      0.00000000	     -7.41268615	     -1.53977126	      2.33523733	      2.71852680	     -6.29883545	     14.59286213	      0.00000000	      0.00000000	     -6.60513378	    -16.68477984	      4.22636536	     -5.99111044	     14.66544269	      0.00000000	      7.81755262	     -8.08384777	     -7.11227982
1760625408.28394103	      2.24577124	     -1.43422501	      0.51813468	      0.15730547	      0.85412961	      0.00207038	     80.00000000	     -7.00000000	      0.00000000	     80.00000000	      1.39626340	      0.00000000	      0.00000000	      0.00000000	     80.00000000	     -7.00000000	      0.00000000	     80.00000000	      1.39626340	      0.00000000	      0.00000000	      0.00000000	     -7.41307871	     -1.53767630	      2.33487837	      2.71599704	     -6.29650888	     14.59252882	      0.00000000	      0.00000000	     -6.60514314	    -16.68465972	      4.22425012	     -5.99279554	     14.66534303	      0.00000000	      7.81747323	     -8.08415076	     -7.11237162
1760625408.29394102	      2.25743535	     -1.43182656	      0.51401912	      0.15752979	      0.85413118	      0.00209818	     80.00000000	     -7.00000000	      0.00000000	     80.00000000	      1.39626340	      0.00000000	      0.00000000	      0.00000000	     80.00000000	     -7.00000000	      0.00000000	     80.00000000	      1.39626340	      0.00000000	      0.00000000	      0.00000000	     -7.40304908	     -1.53346106	      2.33031146	      2.67280316	     -6.25824094	     14.58698437	      0.00000000	      0.00000000	     -6.60516760	    -16.68262269	      4.17465056	     -6.00036993	     14.66190628	      0.00000000	      7.81463077	     -8.09241808	     -7.11408326
1760625408.30394101	      2.25866571	     -1.43099866	      0.51354438	      0.15750418	      0.85412784	      0.00202539	     80.00000000	     -7.00000000	      0.00000000	     80.00000000	      1.39626340	      0.00000000	      0.00000000	      0.00000000	     80.00000000	     -7.00000000	      0.00000000	     80.00000000	      1.39626340	      0.00000000	      0.00000000	      0.00000000	     -7.40188033	     -1.53230769	      2.33034030	      2.67262036	     -6.25770982	     14.58691476	      0.00000000	      0.00000000	     -6.60514081	    -16.68258413	      4.17411417	     -6.00224573	     14.66192737	      0.00000000	      7.81461870	     -8.09264820	     -7.11418177
1760625408.31394100	      2.25920321	     -1.43036387	      0.51304196	      0.15748151	      0.85411938	      0.00198079	     80.00000000	     -7.00000000	      0.00000000	     80.00000000	      1.39626340	      0.00000000	      0.00000000	      0.00000000	     80.00000000	     -7.00000000	      0.00000000	     80.00000000	      1.39626340	      0.00000000	      0.00000000	      0.00000000	     -7.40148161	     -1.53143736	      2.33018536	      2.67217868	     -6.25720020	     14.58683689	      0.00000000	      0.00000000	     -6.60512751	    -16.68255051	      4.17376954	     -6.00331550	     14.66193795	      0.00000000	      7.81461458	     -8.09275949	     -7.11422924
